<?xml version="1.0" standalone="no"?>
<!DOCTYPE svg PUBLIC "-//W3C//DTD SVG 20010904//EN"
 "http://www.w3.org/TR/2001/REC-SVG-20010904/DTD/svg10.dtd">
<svg version="1.0" xmlns="http://www.w3.org/2000/svg"
 width="512.000000pt" height="512.000000pt" viewBox="0 0 512.000000 512.000000"
 preserveAspectRatio="xMidYMid meet">

<g transform="translate(0.000000,512.000000) scale(0.100000,-0.100000)"
fill="#000000" stroke="none">
<path d="M3 4033 c4 -599 9 -1105 13 -1125 l6 -38 409 0 409 0 0 -50 0 -50
-412 0 c-278 0 -409 -3 -402 -10 7 -7 153 -9 420 -8 l409 3 3 233 2 232 60 0
60 0 0 -40 0 -40 570 0 570 0 0 40 0 40 49 0 48 0 7 -61 c3 -34 6 -113 6 -175
l0 -114 754 0 753 0 7 -77 c3 -42 6 -136 6 -209 l0 -134 -757 -3 -758 -2 763
-3 762 -2 0 208 c0 115 3 291 7 390 l6 182 49 0 48 0 0 -140 0 -140 365 0 365
0 0 140 0 140 45 0 c54 0 54 1 58 -165 l2 -120 161 -3 161 -2 6 67 c4 38 7
103 7 146 l0 77 40 0 40 0 0 950 0 950 -2561 0 -2561 0 5 -1087z"/>
<path d="M950 2966 c0 -35 3 -71 6 -80 6 -14 66 -16 580 -16 l574 0 1 -137 c0
-76 4 -160 9 -188 4 -32 8 49 9 218 l1 267 -590 0 -590 0 0 -64z"/>
<path d="M5035 2653 c4 -115 9 -210 11 -212 2 -2 4 91 4 207 0 145 -3 212 -11
212 -7 0 -9 -61 -4 -207z"/>
<path d="M820 2598 c0 -62 5 -60 13 5 4 28 3 47 -3 47 -6 0 -10 -23 -10 -52z"/>
</g>
</svg>
