<svg xmlns="http://www.w3.org/2000/svg" x="0px" y="0px" width="100" height="100" viewBox="0 0 64 64">
<path fill="#7bbeeb" d="M56,11.03v41.94c0,1.67-1.36,3.03-3.03,3.03H11.03C9.36,56,8,54.64,8,52.97V11.03 C8,9.36,9.36,8,11.03,8h41.94C54.64,8,56,9.36,56,11.03z"></path><path fill="none" stroke="#8d6c9f" stroke-linejoin="round" stroke-miterlimit="10" stroke-width="2" d="M52.968,56H11.032 C9.357,56,8,54.643,8,52.968V11.032C8,9.357,9.357,8,11.032,8h41.937C54.643,8,56,9.357,56,11.032v41.937 C56,54.643,54.643,56,52.968,56z"></path><path fill="#f9dd8f" d="M55.224,27.161L39.161,43.224c-0.641,0.641-1.681,0.641-2.322,0L20.776,27.161 c-0.641-0.641-0.641-1.681,0-2.322L36.839,8.776c0.641-0.641,1.681-0.641,2.322,0l16.062,16.062 C55.865,25.48,55.865,26.52,55.224,27.161z"></path><path fill="none" stroke="#8d6c9f" stroke-linejoin="round" stroke-miterlimit="10" stroke-width="2" d="M55.224,27.161 L39.161,43.224c-0.641,0.641-1.681,0.641-2.322,0L20.776,27.161c-0.641-0.641-0.641-1.681,0-2.322L36.839,8.776 c0.641-0.641,1.681-0.641,2.322,0l16.062,16.062C55.865,25.48,55.865,26.52,55.224,27.161z"></path><rect width="5" height="5" x="28.429" y="24.207" fill="#e3f2ff" transform="rotate(-45.001 30.929 26.708)"></rect><rect width="5" height="5" x="36.207" y="16.429" fill="#e3f2ff" transform="rotate(-45.001 38.707 18.93)"></rect><rect width="5" height="5" x="28.429" y="24.207" fill="none" stroke="#8d6c9f" stroke-linejoin="round" stroke-miterlimit="10" stroke-width="2" transform="rotate(-45.001 30.929 26.708)"></rect><rect width="5" height="5" x="36.207" y="16.429" fill="none" stroke="#8d6c9f" stroke-linejoin="round" stroke-miterlimit="10" stroke-width="2" transform="rotate(-45.001 38.707 18.93)"></rect><rect width="16" height="4" x="33.536" y="27.536" fill="#e3f2ff" transform="rotate(-45.001 41.535 29.536)"></rect><rect width="16" height="4" x="33.536" y="27.536" fill="none" stroke="#8d6c9f" stroke-linejoin="round" stroke-miterlimit="10" stroke-width="2" transform="rotate(-45.001 41.535 29.536)"></rect><path fill="#8d6c9f" d="M37,51v-2c0-0.552-0.448-1-1-1c-0.552,0-1,0.448-1,1v2c0,0.552,0.448,1,1,1 C36.552,52,37,51.552,37,51z"></path><path fill="#8d6c9f" d="M32,51v-2c0-0.552-0.448-1-1-1s-1,0.448-1,1v2c0,0.552,0.448,1,1,1S32,51.552,32,51z"></path><path fill="#8d6c9f" d="M47,51v-2c0-0.552-0.448-1-1-1c-0.552,0-1,0.448-1,1v2c0,0.552,0.448,1,1,1 C46.552,52,47,51.552,47,51z"></path><path fill="#8d6c9f" d="M52,51v-2c0-0.552-0.448-1-1-1c-0.552,0-1,0.448-1,1v2c0,0.552,0.448,1,1,1 C51.552,52,52,51.552,52,51z"></path><path fill="#8d6c9f" d="M42,51v-2c0-0.552-0.448-1-1-1c-0.552,0-1,0.448-1,1v2c0,0.552,0.448,1,1,1 C41.552,52,42,51.552,42,51z"></path><polygon fill="#a0a4ac" points="17,32 8,51 26,51"></polygon><line x1="14" x2="13" y1="38.333" y2="40.444" fill="none" stroke="#8d6c9f" stroke-linecap="round" stroke-linejoin="round" stroke-miterlimit="10" stroke-width="2"></line><polyline fill="none" stroke="#8d6c9f" stroke-linecap="round" stroke-linejoin="round" stroke-miterlimit="10" stroke-width="2" points="11.316,44 8,51 26,51 17,32 15.579,35"></polyline>
</svg>